<?xml version="1.0" encoding="UTF-8"?>
<!DOCTYPE svg PUBLIC "-//W3C//DTD SVG 1.1//EN" "http://www.w3.org/Graphics/SVG/1.1/DTD/svg11.dtd">
<svg xmlns="http://www.w3.org/2000/svg" version="1.1" width="606px" height="246px" style="shape-rendering:geometricPrecision; text-rendering:geometricPrecision; image-rendering:optimizeQuality; fill-rule:evenodd; clip-rule:evenodd" xmlns:xlink="http://www.w3.org/1999/xlink">
<g><path style="opacity:1" fill="#262626" d="M 332.5,61.5 C 332.833,62.5 333.5,63.1667 334.5,63.5C 334.427,65.0269 335.094,66.0269 336.5,66.5C 338.631,71.1523 339.631,76.1523 339.5,81.5C 339.813,94.2464 339.48,106.913 338.5,119.5C 337.833,106.833 337.167,94.1667 336.5,81.5C 336.675,79.3792 336.341,77.3792 335.5,75.5C 335.242,71.5598 334.076,67.8931 332,64.5C 330.951,63.4829 329.784,63.3162 328.5,64C 323.703,69.9389 320.036,76.4389 317.5,83.5C 317.672,82.5084 317.338,81.8417 316.5,81.5C 316.5,80.5 316.5,79.5 316.5,78.5C 319.223,73.3977 322.223,68.3977 325.5,63.5C 327.51,61.8287 329.843,61.162 332.5,61.5 Z"/></g>
<g><path style="opacity:0.004" fill="#c7c7c7" d="M 332.5,61.5 C 333.833,61.5 334.5,62.1667 334.5,63.5C 333.5,63.1667 332.833,62.5 332.5,61.5 Z"/></g>
<g><path style="opacity:0.753" fill="#b4b4b4" d="M 377.5,61.5 C 384.874,63.0186 391.207,66.352 396.5,71.5C 389.969,68.4029 383.636,65.0696 377.5,61.5 Z"/></g>
<g><path style="opacity:0.153" fill="#d2d2d2" d="M 335.5,75.5 C 335.167,75.5 334.833,75.5 334.5,75.5C 331.251,62.3309 327.417,62.3309 323,75.5C 308.793,108.341 306.126,142.007 315,176.5C 316.678,180.532 318.844,184.199 321.5,187.5C 322.192,186.975 322.692,186.308 323,185.5C 325.643,177.084 328.143,168.75 330.5,160.5C 329.993,164.86 329.327,169.193 328.5,173.5C 326.65,179.538 324.483,185.538 322,191.5C 314.792,181.697 310.458,170.697 309,158.5C 306.754,132.883 309.587,107.883 317.5,83.5C 320.036,76.4389 323.703,69.9389 328.5,64C 329.784,63.3162 330.951,63.4829 332,64.5C 334.076,67.8931 335.242,71.5598 335.5,75.5 Z"/></g>
<g><path style="opacity:1" fill="#b1b1b1" d="M 136.5,75.5 C 136.825,83.3516 136.492,91.0182 135.5,98.5C 135.917,89.0854 135.417,79.7521 134,70.5C 131.303,67.1295 127.803,65.7962 123.5,66.5C 127.938,64.0174 131.771,65.0174 135,69.5C 136.128,71.3453 136.628,73.3453 136.5,75.5 Z"/></g>
<g><path style="opacity:0.322" fill="#c3c3c3" d="M 334.5,63.5 C 335.906,63.9731 336.573,64.9731 336.5,66.5C 335.094,66.0269 334.427,65.0269 334.5,63.5 Z"/></g>
<g><path style="opacity:1" fill="#242424" d="M 369.5,60.5 C 372.385,60.1936 375.052,60.5269 377.5,61.5C 383.636,65.0696 389.969,68.4029 396.5,71.5C 397.5,73.1667 398.833,74.5 400.5,75.5C 401.34,77.8525 402.674,79.8525 404.5,81.5C 404.182,84.4815 405.182,86.8148 407.5,88.5C 407.894,92.3472 408.894,96.0139 410.5,99.5C 410.672,100.492 410.338,101.158 409.5,101.5C 406.789,94.8931 403.956,88.2265 401,81.5C 395.553,74.0195 388.387,68.8528 379.5,66C 376.57,64.6821 373.57,64.0154 370.5,64C 365.401,76.7865 364.235,89.9531 367,103.5C 368.822,106.321 370.989,108.821 373.5,111C 379.742,112.37 386.075,112.87 392.5,112.5C 388.901,113.542 383.234,113.875 375.5,113.5C 373.784,113.371 372.117,113.038 370.5,112.5C 369.5,110.833 368.167,109.5 366.5,108.5C 362.937,100.243 361.603,91.576 362.5,82.5C 363.608,74.8402 365.941,67.5069 369.5,60.5 Z"/></g>
<g><path style="opacity:0.408" fill="#cccccc" d="M 332.5,61.5 C 329.843,61.162 327.51,61.8287 325.5,63.5C 322.223,68.3977 319.223,73.3977 316.5,78.5C 318.096,72.6421 320.762,67.3088 324.5,62.5C 327.066,60.401 329.733,60.0677 332.5,61.5 Z"/></g>
<g><path style="opacity:1" fill="#242424" d="M 123.5,66.5 C 127.803,65.7962 131.303,67.1295 134,70.5C 135.417,79.7521 135.917,89.0854 135.5,98.5C 134.486,106.255 133.152,113.922 131.5,121.5C 129.517,124.799 128.517,128.466 128.5,132.5C 127.314,133.705 127.314,135.039 128.5,136.5C 125.083,141.721 122.416,147.387 120.5,153.5C 119.075,155.031 118.409,154.698 118.5,152.5C 119.292,151.033 119.292,149.7 118.5,148.5C 113.082,153.378 106.749,155.711 99.5,155.5C 101.5,154.833 103.5,154.167 105.5,153.5C 112.632,150.862 118.465,146.529 123,140.5C 131.715,118.256 134.715,95.2565 132,71.5C 130.136,68.7928 127.636,67.9595 124.5,69C 118.35,74.3119 114.016,80.8119 111.5,88.5C 110.075,90.0311 109.409,89.6977 109.5,87.5C 112.42,79.3243 117.087,72.3243 123.5,66.5 Z"/></g>
<g><path style="opacity:1" fill="#bbbbbb" d="M 369.5,60.5 C 365.941,67.5069 363.608,74.8402 362.5,82.5C 362.5,81.8333 362.5,81.1667 362.5,80.5C 362.554,74.6157 363.721,68.949 366,63.5C 366.422,61.5743 367.589,60.5743 369.5,60.5 Z"/></g>
<g><path style="opacity:0.008" fill="#dfdfdf" d="M 396.5,71.5 C 398.833,71.8333 400.167,73.1667 400.5,75.5C 398.833,74.5 397.5,73.1667 396.5,71.5 Z"/></g>
<g><path style="opacity:0.306" fill="#dfdfdf" d="M 105.5,153.5 C 103.167,153.5 100.833,153.5 98.5,153.5C 97.1708,134.471 100.171,116.137 107.5,98.5C 108.828,95.2109 110.162,91.8776 111.5,88.5C 114.016,80.8119 118.35,74.3119 124.5,69C 127.636,67.9595 130.136,68.7928 132,71.5C 134.715,95.2565 131.715,118.256 123,140.5C 118.465,146.529 112.632,150.862 105.5,153.5 Z M 125.5,70.5 C 127.911,70.1367 129.411,71.1367 130,73.5C 133.027,97.3332 129.361,120 119,141.5C 114.7,146.463 109.366,149.796 103,151.5C 101.739,151.241 100.739,150.574 100,149.5C 100.73,126.908 105.73,105.242 115,84.5C 117.626,79.0593 121.126,74.3926 125.5,70.5 Z"/></g>
<g><path style="opacity:0.2" fill="#cccccc" d="M 400.5,75.5 C 402.822,76.8021 404.155,78.8021 404.5,81.5C 402.674,79.8525 401.34,77.8525 400.5,75.5 Z"/></g>
<g><path style="opacity:0.784" fill="#d7d7d7" d="M 473.5,81.5 C 473.167,81.5 472.833,81.5 472.5,81.5C 471.44,75.9047 468.107,74.0714 462.5,76C 456.5,80.6667 450.5,85.3333 444.5,90C 439.237,93.4603 433.904,96.6269 428.5,99.5C 423.745,101.625 418.912,103.625 414,105.5C 412.251,103.777 411.084,101.777 410.5,99.5C 408.894,96.0139 407.894,92.3472 407.5,88.5C 409.626,93.5173 411.959,98.5173 414.5,103.5C 422.896,100.469 430.896,96.6352 438.5,92C 446.167,86.3333 453.833,80.6667 461.5,75C 468.662,71.7432 472.662,73.9099 473.5,81.5 Z"/></g>
<g><path style="opacity:0.424" fill="#b4b4b4" d="M 293.5,86.5 C 293.167,86.5 292.833,86.5 292.5,86.5C 293.321,83.4465 293.321,80.4465 292.5,77.5C 290.504,80.497 288.504,83.497 286.5,86.5C 287.092,83.3093 288.259,80.3093 290,77.5C 291.11,75.9632 292.61,75.2965 294.5,75.5C 294.756,79.2693 294.423,82.9359 293.5,86.5 Z"/></g>
<g><path style="opacity:0.22" fill="#d6d6d6" d="M 123.5,66.5 C 117.087,72.3243 112.42,79.3243 109.5,87.5C 108.833,88.1667 108.167,88.8333 107.5,89.5C 109.809,81.3816 113.809,74.215 119.5,68C 120.745,67.2086 122.078,66.7086 123.5,66.5 Z"/></g>
<g><path style="opacity:1" fill="#1f1f1f" d="M 292.5,86.5 C 289.89,102.029 288.557,117.696 288.5,133.5C 287.748,150.345 286.915,167.345 286,184.5C 285.689,188.09 284.856,191.423 283.5,194.5C 283.631,193.761 283.464,193.094 283,192.5C 282.768,193.737 282.268,194.737 281.5,195.5C 282.828,188.573 283.661,181.573 284,174.5C 284.857,150.12 286.023,125.786 287.5,101.5C 288.54,97.6528 289.04,93.6528 289,89.5C 287.589,91.6504 286.755,93.9837 286.5,96.5C 283.692,104.07 281.692,111.737 280.5,119.5C 279.539,117.735 279.205,115.735 279.5,113.5C 281.498,105.506 283.498,97.5063 285.5,89.5C 285.263,88.209 285.596,87.209 286.5,86.5C 288.504,83.497 290.504,80.497 292.5,77.5C 293.321,80.4465 293.321,83.4465 292.5,86.5 Z"/></g>
<g><path style="opacity:0.2" fill="#c5c5c5" d="M 404.5,81.5 C 406.293,83.4261 407.293,85.7594 407.5,88.5C 405.182,86.8148 404.182,84.4815 404.5,81.5 Z"/></g>
<g><path style="opacity:1" fill="#d6d6d6" d="M 469.5,104.5 C 469.167,104.5 468.833,104.5 468.5,104.5C 468.5,100.5 468.5,96.5 468.5,92.5C 467.627,88.2315 467.294,83.8982 467.5,79.5C 465.217,79.6079 463.217,80.4412 461.5,82C 447.939,93.3711 433.106,102.871 417,110.5C 419.22,122.102 421.386,133.768 423.5,145.5C 423.167,145.5 422.833,145.5 422.5,145.5C 420.388,133.885 417.721,122.385 414.5,111C 414.785,109.11 415.785,107.777 417.5,107C 421.507,105.663 425.173,103.83 428.5,101.5C 440.358,96.148 451.025,88.9814 460.5,80C 462.783,77.81 465.449,77.1433 468.5,78C 469.126,78.7504 469.626,79.5838 470,80.5C 470.698,88.5279 470.532,96.5279 469.5,104.5 Z"/></g>
<g><path style="opacity:1" fill="#a0a0a0" d="M 316.5,78.5 C 316.5,79.5 316.5,80.5 316.5,81.5C 314.673,86.9922 312.673,92.3256 310.5,97.5C 311.436,90.7329 313.436,84.3996 316.5,78.5 Z"/></g>
<g><path style="opacity:0.417" fill="#e1e1e1" d="M 362.5,80.5 C 362.5,81.1667 362.5,81.8333 362.5,82.5C 361.603,91.576 362.937,100.243 366.5,108.5C 363.972,106.11 362.472,103.11 362,99.5C 361.18,92.9863 361.347,86.6529 362.5,80.5 Z"/></g>
<g><path style="opacity:1" fill="#989898" d="M 472.5,81.5 C 472.833,81.5 473.167,81.5 473.5,81.5C 474.755,88.1231 474.755,94.7897 473.5,101.5C 473.167,101.5 472.833,101.5 472.5,101.5C 472.5,94.8333 472.5,88.1667 472.5,81.5 Z"/></g>
<g><path style="opacity:0.165" fill="#e5e5e5" d="M 107.5,89.5 C 107.598,91.5529 106.931,93.2196 105.5,94.5C 105.402,92.4471 106.069,90.7804 107.5,89.5 Z"/></g>
<g><path style="opacity:1" fill="#202020" d="M 316.5,81.5 C 317.338,81.8417 317.672,82.5084 317.5,83.5C 309.587,107.883 306.754,132.883 309,158.5C 310.458,170.697 314.792,181.697 322,191.5C 324.483,185.538 326.65,179.538 328.5,173.5C 329.404,174.209 329.737,175.209 329.5,176.5C 327.992,182.194 326.326,187.86 324.5,193.5C 325.769,196.105 327.436,198.438 329.5,200.5C 328.833,200.5 328.5,200.833 328.5,201.5C 326.871,200.375 325.371,199.041 324,197.5C 321.232,206.156 318.398,214.823 315.5,223.5C 314.167,224.5 312.833,225.5 311.5,226.5C 310.833,226.5 310.5,226.167 310.5,225.5C 315.626,216.298 319.293,206.465 321.5,196C 317.436,190.034 313.769,183.867 310.5,177.5C 310.267,174.458 309.267,171.792 307.5,169.5C 306.566,168.432 306.232,167.099 306.5,165.5C 305.667,152.185 305.334,138.851 305.5,125.5C 305.302,120.25 305.969,115.25 307.5,110.5C 308.913,107.781 309.58,104.781 309.5,101.5C 309.232,99.901 309.566,98.5676 310.5,97.5C 312.673,92.3256 314.673,86.9922 316.5,81.5 Z"/></g>
<g><path style="opacity:1" fill="#505050" d="M 109.5,87.5 C 109.409,89.6977 110.075,90.0311 111.5,88.5C 110.162,91.8776 108.828,95.2109 107.5,98.5C 107.869,96.0065 107.203,95.3398 105.5,96.5C 105.5,95.8333 105.5,95.1667 105.5,94.5C 106.931,93.2196 107.598,91.5529 107.5,89.5C 108.167,88.8333 108.833,88.1667 109.5,87.5 Z"/></g>
<g><path style="opacity:1" fill="#8e8e8e" d="M 287.5,101.5 C 287.784,99.5853 287.451,97.9187 286.5,96.5C 286.755,93.9837 287.589,91.6504 289,89.5C 289.04,93.6528 288.54,97.6528 287.5,101.5 Z"/></g>
<g><path style="opacity:1" fill="#b4b4b4" d="M 285.5,89.5 C 283.498,97.5063 281.498,105.506 279.5,113.5C 279.167,113.5 278.833,113.5 278.5,113.5C 279.652,105.055 281.985,97.0548 285.5,89.5 Z"/></g>
<g><path style="opacity:1" fill="#1e1e1e" d="M 472.5,81.5 C 472.5,88.1667 472.5,94.8333 472.5,101.5C 472.041,104.877 471.374,108.211 470.5,111.5C 469.596,110.791 469.263,109.791 469.5,108.5C 469.5,107.167 469.5,105.833 469.5,104.5C 470.532,96.5279 470.698,88.5279 470,80.5C 469.626,79.5838 469.126,78.7504 468.5,78C 465.449,77.1433 462.783,77.81 460.5,80C 451.025,88.9814 440.358,96.148 428.5,101.5C 428.5,100.833 428.5,100.167 428.5,99.5C 433.904,96.6269 439.237,93.4603 444.5,90C 450.5,85.3333 456.5,80.6667 462.5,76C 468.107,74.0714 471.44,75.9047 472.5,81.5 Z"/></g>
<g><path style="opacity:0.388" fill="#dedede" d="M 292.5,86.5 C 292.833,86.5 293.167,86.5 293.5,86.5C 291.067,106.584 289.4,126.584 288.5,146.5C 288.5,142.167 288.5,137.833 288.5,133.5C 288.557,117.696 289.89,102.029 292.5,86.5 Z"/></g>
<g><path style="opacity:0.694" fill="#d8d8d8" d="M 409.5,101.5 C 409.5,103.5 409.5,105.5 409.5,107.5C 403.598,108.721 397.932,110.388 392.5,112.5C 386.075,112.87 379.742,112.37 373.5,111C 370.989,108.821 368.822,106.321 367,103.5C 364.235,89.9531 365.401,76.7865 370.5,64C 373.57,64.0154 376.57,64.6821 379.5,66C 388.387,68.8528 395.553,74.0195 401,81.5C 403.956,88.2265 406.789,94.8931 409.5,101.5 Z M 370.5,65.5 C 386.884,67.3977 397.717,76.0644 403,91.5C 404.5,96 406,100.5 407.5,105C 404.423,107.695 400.756,109.028 396.5,109C 389.167,109.667 381.833,109.667 374.5,109C 372.714,108.215 371.214,107.049 370,105.5C 368.051,100.703 366.884,95.703 366.5,90.5C 367.295,82.0654 368.628,73.732 370.5,65.5 Z"/></g>
<g><path style="opacity:1" fill="#bebebe" d="M 309.5,101.5 C 309.58,104.781 308.913,107.781 307.5,110.5C 307.42,107.219 308.087,104.219 309.5,101.5 Z"/></g>
<g><path style="opacity:1" fill="#272727" d="M 410.5,99.5 C 411.084,101.777 412.251,103.777 414,105.5C 418.912,103.625 423.745,101.625 428.5,99.5C 428.5,100.167 428.5,100.833 428.5,101.5C 425.173,103.83 421.507,105.663 417.5,107C 415.785,107.777 414.785,109.11 414.5,111C 417.721,122.385 420.388,133.885 422.5,145.5C 421.778,145.082 421.278,144.416 421,143.5C 420.536,144.094 420.369,144.761 420.5,145.5C 419.662,145.158 419.328,144.492 419.5,143.5C 419.59,140.848 418.924,138.515 417.5,136.5C 416.457,127.995 414.624,119.661 412,111.5C 411.275,110.941 410.442,110.608 409.5,110.5C 404.932,111.47 400.599,112.803 396.5,114.5C 389.313,114.825 382.313,114.491 375.5,113.5C 383.234,113.875 388.901,113.542 392.5,112.5C 397.932,110.388 403.598,108.721 409.5,107.5C 409.5,105.5 409.5,103.5 409.5,101.5C 410.338,101.158 410.672,100.492 410.5,99.5 Z"/></g>
<g><path style="opacity:0.816" fill="#d1d1d1" d="M 105.5,94.5 C 105.5,95.1667 105.5,95.8333 105.5,96.5C 101.403,108.22 98.2362,120.22 96,132.5C 94.9818,140.338 95.4818,148.005 97.5,155.5C 96.2502,155.423 95.4169,154.756 95,153.5C 93.4366,132.828 96.9366,113.161 105.5,94.5 Z"/></g>
<g><path style="opacity:0.008" fill="#d5d5d5" d="M 366.5,108.5 C 368.167,109.5 369.5,110.833 370.5,112.5C 368.167,112.167 366.833,110.833 366.5,108.5 Z"/></g>
<g><path style="opacity:1" fill="#8b8b8b" d="M 468.5,104.5 C 468.833,104.5 469.167,104.5 469.5,104.5C 469.5,105.833 469.5,107.167 469.5,108.5C 468.833,109.5 468.167,110.5 467.5,111.5C 467.674,109.139 468.007,106.806 468.5,104.5 Z"/></g>
<g><path style="opacity:0.992" fill="#c2c2c2" d="M 204.5,106.5 C 203.21,112.033 201.543,117.366 199.5,122.5C 199.991,116.7 201.657,111.367 204.5,106.5 Z"/></g>
<g><path style="opacity:0.086" fill="#d0d0d0" d="M 417.5,136.5 C 417.5,137.833 417.5,139.167 417.5,140.5C 414.878,131.347 412.545,122.014 410.5,112.5C 405.833,113.167 401.167,113.833 396.5,114.5C 400.599,112.803 404.932,111.47 409.5,110.5C 410.442,110.608 411.275,110.941 412,111.5C 414.624,119.661 416.457,127.995 417.5,136.5 Z"/></g>
<g><path style="opacity:1" fill="#2d2d2d" d="M 146.5,157.5 C 145.033,160.258 144.367,159.925 144.5,156.5C 145.427,150.866 146.093,145.199 146.5,139.5C 148.23,135.117 149.23,130.45 149.5,125.5C 149.5,123.5 149.5,121.5 149.5,119.5C 150.817,113.654 150.817,107.654 149.5,101.5C 142.726,113.396 135.726,125.063 128.5,136.5C 127.314,135.039 127.314,133.705 128.5,132.5C 129.974,131.564 130.974,130.23 131.5,128.5C 136.401,119.033 141.567,109.7 147,100.5C 148.415,97.7821 150.415,97.1154 153,98.5C 153.667,104.833 153.667,111.167 153,117.5C 151.471,130.947 149.304,144.281 146.5,157.5 Z"/></g>
<g><path style="opacity:1" fill="#292929" d="M 206.5,131.5 C 205.549,130.081 205.216,128.415 205.5,126.5C 205.942,120.288 207.275,114.288 209.5,108.5C 208.132,107.406 206.965,107.74 206,109.5C 203.462,117.692 201.629,126.025 200.5,134.5C 199.732,135.263 199.232,136.263 199,137.5C 198.506,135.866 198.34,134.199 198.5,132.5C 198.963,129.518 199.296,126.518 199.5,123.5C 199.5,123.167 199.5,122.833 199.5,122.5C 201.543,117.366 203.21,112.033 204.5,106.5C 208.484,103.238 210.818,104.072 211.5,109C 209.274,116.403 207.607,123.903 206.5,131.5 Z"/></g>
<g><path style="opacity:0.878" fill="#bbbbbb" d="M 370.5,112.5 C 372.117,113.038 373.784,113.371 375.5,113.5C 382.313,114.491 389.313,114.825 396.5,114.5C 389.345,115.655 382.012,115.822 374.5,115C 372.68,114.8 371.347,113.966 370.5,112.5 Z"/></g>
<g><path style="opacity:0.31" fill="#dfdfdf" d="M 205.5,161.5 C 205.5,155.167 205.5,148.833 205.5,142.5C 205.5,140.833 205.5,139.167 205.5,137.5C 206.461,135.735 206.795,133.735 206.5,131.5C 207.607,123.903 209.274,116.403 211.5,109C 210.818,104.072 208.484,103.238 204.5,106.5C 204.414,105.504 204.748,104.671 205.5,104C 210.901,102.1 213.234,103.933 212.5,109.5C 208.579,126.763 206.245,144.096 205.5,161.5 Z"/></g>
<g><path style="opacity:1" fill="#545454" d="M 278.5,113.5 C 278.833,113.5 279.167,113.5 279.5,113.5C 279.205,115.735 279.539,117.735 280.5,119.5C 280.795,121.735 280.461,123.735 279.5,125.5C 279.66,123.801 279.494,122.134 279,120.5C 278.722,121.416 278.222,122.082 277.5,122.5C 277.5,121.167 277.5,119.833 277.5,118.5C 277.216,116.585 277.549,114.919 278.5,113.5 Z"/></g>
<g><path style="opacity:1" fill="#2e2e2e" d="M 336.5,81.5 C 337.167,94.1667 337.833,106.833 338.5,119.5C 338.074,129.85 337.408,140.183 336.5,150.5C 334.421,156.558 333.087,162.891 332.5,169.5C 332.768,171.099 332.434,172.432 331.5,173.5C 330.833,174.5 330.167,175.5 329.5,176.5C 329.737,175.209 329.404,174.209 328.5,173.5C 329.327,169.193 329.993,164.86 330.5,160.5C 330.659,156.709 331.325,153.042 332.5,149.5C 333.29,148.391 333.79,147.058 334,145.5C 336.071,124.218 336.905,102.885 336.5,81.5 Z"/></g>
<g><path style="opacity:1" fill="#262626" d="M 469.5,108.5 C 469.263,109.791 469.596,110.791 470.5,111.5C 468.116,130.345 461.449,147.345 450.5,162.5C 450.591,160.302 449.925,159.969 448.5,161.5C 452.673,153.819 456.84,146.152 461,138.5C 463.482,129.559 465.648,120.559 467.5,111.5C 468.167,110.5 468.833,109.5 469.5,108.5 Z"/></g>
<g><path style="opacity:0.388" fill="#cfcfcf" d="M 136.5,75.5 C 137.656,83.3225 137.823,91.3225 137,99.5C 136.095,106.585 135.095,113.585 134,120.5C 138.203,111.921 143.037,103.754 148.5,96C 150.701,95.1751 152.534,95.6751 154,97.5C 154.383,130.763 148.883,163.097 137.5,194.5C 136.833,194.5 136.167,194.5 135.5,194.5C 139.382,184.424 142.382,174.091 144.5,163.5C 146.074,161.898 146.741,159.898 146.5,157.5C 149.304,144.281 151.471,130.947 153,117.5C 153.667,111.167 153.667,104.833 153,98.5C 150.415,97.1154 148.415,97.7821 147,100.5C 141.567,109.7 136.401,119.033 131.5,128.5C 130.897,126.374 130.897,124.041 131.5,121.5C 133.152,113.922 134.486,106.255 135.5,98.5C 136.492,91.0182 136.825,83.3516 136.5,75.5 Z"/></g>
<g><path style="opacity:0.557" fill="#cbcbcb" d="M 339.5,81.5 C 340.661,94.9938 340.827,108.66 340,122.5C 339.514,132.063 338.347,141.396 336.5,150.5C 337.408,140.183 338.074,129.85 338.5,119.5C 339.48,106.913 339.813,94.2464 339.5,81.5 Z"/></g>
<g><path style="opacity:1" fill="#bfbfbf" d="M 277.5,118.5 C 277.5,119.833 277.5,121.167 277.5,122.5C 277.043,128.72 276.043,134.72 274.5,140.5C 274.696,132.923 275.696,125.589 277.5,118.5 Z"/></g>
<g><path style="opacity:1" fill="#878787" d="M 131.5,121.5 C 130.897,124.041 130.897,126.374 131.5,128.5C 130.974,130.23 129.974,131.564 128.5,132.5C 128.517,128.466 129.517,124.799 131.5,121.5 Z"/></g>
<g><path style="opacity:1" fill="#a4a4a4" d="M 149.5,125.5 C 149.23,130.45 148.23,135.117 146.5,139.5C 146.77,134.55 147.77,129.883 149.5,125.5 Z"/></g>
<g><path style="opacity:0.784" fill="#d5d5d5" d="M 199.5,123.5 C 199.296,126.518 198.963,129.518 198.5,132.5C 198.167,132.5 197.833,132.5 197.5,132.5C 197.42,129.219 198.087,126.219 199.5,123.5 Z"/></g>
<g><path style="opacity:0.03" fill="#e6e6e6" d="M 334.5,75.5 C 334.833,75.5 335.167,75.5 335.5,75.5C 336.341,77.3792 336.675,79.3792 336.5,81.5C 336.905,102.885 336.071,124.218 334,145.5C 333.79,147.058 333.29,148.391 332.5,149.5C 334.285,124.877 334.952,100.21 334.5,75.5 Z"/></g>
<g><path style="opacity:1" fill="#1d1d1d" d="M 279.5,125.5 C 277.23,146.48 277.063,167.48 279,188.5C 279.467,191.675 280.3,194.008 281.5,195.5C 282.268,194.737 282.768,193.737 283,192.5C 283.464,193.094 283.631,193.761 283.5,194.5C 283.364,197.35 283.031,200.183 282.5,203C 282.393,205.221 283.06,207.054 284.5,208.5C 287.983,222.344 296.65,228.011 310.5,225.5C 310.5,226.167 310.833,226.5 311.5,226.5C 311.167,227.167 310.833,227.833 310.5,228.5C 310.158,229.338 309.492,229.672 308.5,229.5C 305.098,229.658 301.764,229.324 298.5,228.5C 296.898,226.926 294.898,226.259 292.5,226.5C 287.664,221.108 283.664,215.775 280.5,210.5C 279.662,210.158 279.328,209.492 279.5,208.5C 277.842,198.865 276.342,189.198 275,179.5C 274.5,167.838 274.333,156.171 274.5,144.5C 274.5,143.167 274.5,141.833 274.5,140.5C 276.043,134.72 277.043,128.72 277.5,122.5C 278.222,122.082 278.722,121.416 279,120.5C 279.494,122.134 279.66,123.801 279.5,125.5 Z"/></g>
<g><path style="opacity:1" fill="#717171" d="M 197.5,132.5 C 197.833,132.5 198.167,132.5 198.5,132.5C 198.34,134.199 198.506,135.866 199,137.5C 199.232,136.263 199.732,135.263 200.5,134.5C 200.324,137.727 199.657,140.727 198.5,143.5C 198.66,141.801 198.494,140.134 198,138.5C 197.768,139.737 197.268,140.737 196.5,141.5C 196.5,140.167 196.5,138.833 196.5,137.5C 196.216,135.585 196.549,133.919 197.5,132.5 Z"/></g>
<g><path style="opacity:1" fill="#4f4f4f" d="M 205.5,126.5 C 205.216,128.415 205.549,130.081 206.5,131.5C 206.795,133.735 206.461,135.735 205.5,137.5C 205.66,135.801 205.494,134.134 205,132.5C 204.814,135.036 204.314,137.369 203.5,139.5C 203.28,134.9 203.946,130.567 205.5,126.5 Z"/></g>
<g><path style="opacity:1" fill="#303030" d="M 107.5,98.5 C 100.171,116.137 97.1708,134.471 98.5,153.5C 100.833,153.5 103.167,153.5 105.5,153.5C 103.5,154.167 101.5,154.833 99.5,155.5C 98.8333,155.5 98.1667,155.5 97.5,155.5C 95.4818,148.005 94.9818,140.338 96,132.5C 98.2362,120.22 101.403,108.22 105.5,96.5C 107.203,95.3398 107.869,96.0065 107.5,98.5 Z"/></g>
<g><path style="opacity:0.295" fill="#dedede" d="M 149.5,119.5 C 149.5,116.167 149.5,112.833 149.5,109.5C 149.631,108.624 149.298,107.957 148.5,107.5C 138.859,123.279 129.859,139.446 121.5,156C 127.374,163.102 131.041,171.268 132.5,180.5C 132.5,181.5 132.5,182.5 132.5,183.5C 130.252,177.258 128.085,170.924 126,164.5C 124.647,163.315 123.48,161.981 122.5,160.5C 121.311,159.571 119.978,159.238 118.5,159.5C 118.704,157.315 119.37,155.315 120.5,153.5C 122.416,147.387 125.083,141.721 128.5,136.5C 135.726,125.063 142.726,113.396 149.5,101.5C 150.817,107.654 150.817,113.654 149.5,119.5 Z"/></g>
<g><path style="opacity:0.722" fill="#dddddd" d="M 205.5,126.5 C 203.946,130.567 203.28,134.9 203.5,139.5C 203.711,158.46 201.545,177.126 197,195.5C 196.667,195.833 196.333,196.167 196,196.5C 195.5,186.506 195.334,176.506 195.5,166.5C 195.323,162.766 195.656,159.099 196.5,155.5C 197.378,151.664 198.044,147.664 198.5,143.5C 199.657,140.727 200.324,137.727 200.5,134.5C 201.629,126.025 203.462,117.692 206,109.5C 206.965,107.74 208.132,107.406 209.5,108.5C 207.275,114.288 205.942,120.288 205.5,126.5 Z M 201.5,141.5 C 201.564,155.944 200.397,170.278 198,184.5C 196.813,169.837 197.98,155.503 201.5,141.5 Z"/></g>
<g><path style="opacity:1" fill="#969696" d="M 417.5,136.5 C 418.924,138.515 419.59,140.848 419.5,143.5C 418.833,142.5 418.167,141.5 417.5,140.5C 417.5,139.167 417.5,137.833 417.5,136.5 Z"/></g>
<g><path style="opacity:0.856" fill="#aaaaaa" d="M 305.5,125.5 C 305.334,138.851 305.667,152.185 306.5,165.5C 305.698,164.048 305.198,162.382 305,160.5C 304.174,148.659 304.341,136.993 305.5,125.5 Z"/></g>
<g><path style="opacity:1" fill="#bfbfbf" d="M 196.5,137.5 C 196.5,138.833 196.5,140.167 196.5,141.5C 195.833,146.167 195.167,150.833 194.5,155.5C 194.5,155.833 194.5,156.167 194.5,156.5C 193.686,158.631 193.186,160.964 193,163.5C 192.5,173.161 192.334,182.828 192.5,192.5C 192.167,192.5 191.833,192.5 191.5,192.5C 190.394,173.766 192.06,155.432 196.5,137.5 Z"/></g>
<g><path style="opacity:1" fill="#262626" d="M 198.5,143.5 C 198.044,147.664 197.378,151.664 196.5,155.5C 196.649,154.448 196.483,153.448 196,152.5C 195.768,153.737 195.268,154.737 194.5,155.5C 195.167,150.833 195.833,146.167 196.5,141.5C 197.268,140.737 197.768,139.737 198,138.5C 198.494,140.134 198.66,141.801 198.5,143.5 Z"/></g>
<g><path style="opacity:0.831" fill="#dddddd" d="M 417.5,140.5 C 418.167,141.5 418.833,142.5 419.5,143.5C 419.328,144.492 419.662,145.158 420.5,145.5C 420.5,146.833 420.5,148.167 420.5,149.5C 420.5,151.167 420.5,152.833 420.5,154.5C 419.167,154.5 417.833,154.5 416.5,154.5C 415.833,154.5 415.167,154.5 414.5,154.5C 412.485,153.076 410.152,152.41 407.5,152.5C 406.833,152.5 406.167,152.5 405.5,152.5C 405.5,152.167 405.5,151.833 405.5,151.5C 410.307,151.519 414.973,152.019 419.5,153C 418.419,148.934 417.752,144.767 417.5,140.5 Z"/></g>
<g><path style="opacity:1" fill="#bcbcbc" d="M 405.5,151.5 C 405.5,151.833 405.5,152.167 405.5,152.5C 396.076,151.516 387.076,152.85 378.5,156.5C 381.824,153.436 385.824,151.603 390.5,151C 395.684,150.184 400.684,150.35 405.5,151.5 Z"/></g>
<g><path style="opacity:1" fill="#4c4c4c" d="M 407.5,152.5 C 410.152,152.41 412.485,153.076 414.5,154.5C 413.127,154.343 411.793,154.51 410.5,155C 411.416,155.278 412.082,155.778 412.5,156.5C 411.167,156.5 409.833,156.5 408.5,156.5C 402.355,155.51 396.022,155.177 389.5,155.5C 395.987,154.672 402.654,154.172 409.5,154C 408.584,153.722 407.918,153.222 407.5,152.5 Z"/></g>
<g><path style="opacity:1" fill="#aaaaaa" d="M 423.5,145.5 C 424.468,147.607 424.802,149.941 424.5,152.5C 424.5,153.833 424.5,155.167 424.5,156.5C 426.38,156.229 427.713,156.896 428.5,158.5C 426.883,157.962 425.216,157.629 423.5,157.5C 423.5,153.5 423.5,149.5 423.5,145.5 Z"/></g>
<g><path style="opacity:1" fill="#7d7d7d" d="M 420.5,149.5 C 421.461,151.265 421.795,153.265 421.5,155.5C 419.585,155.784 417.919,155.451 416.5,154.5C 417.833,154.5 419.167,154.5 420.5,154.5C 420.5,152.833 420.5,151.167 420.5,149.5 Z"/></g>
<g><path style="opacity:0.176" fill="#c7c7c7" d="M 118.5,152.5 C 115.935,156.844 113.935,161.51 112.5,166.5C 110.172,170.463 107.838,174.463 105.5,178.5C 108.262,170.303 111.596,162.303 115.5,154.5C 115.167,154.167 114.833,153.833 114.5,153.5C 109.691,157.089 104.357,158.256 98.5,157C 97.944,156.617 97.6107,156.117 97.5,155.5C 98.1667,155.5 98.8333,155.5 99.5,155.5C 106.749,155.711 113.082,153.378 118.5,148.5C 119.292,149.7 119.292,151.033 118.5,152.5 Z"/></g>
<g><path style="opacity:0.24" fill="#ebebeb" d="M 149.5,109.5 C 149.5,112.833 149.5,116.167 149.5,119.5C 149.5,121.5 149.5,123.5 149.5,125.5C 147.77,129.883 146.77,134.55 146.5,139.5C 146.093,145.199 145.427,150.866 144.5,156.5C 142.787,157.635 142.12,159.302 142.5,161.5C 142.5,162.167 142.5,162.833 142.5,163.5C 141.076,165.515 140.41,167.848 140.5,170.5C 140.5,170.833 140.5,171.167 140.5,171.5C 139.076,173.515 138.41,175.848 138.5,178.5C 137.512,181.081 136.512,183.748 135.5,186.5C 134.778,186.918 134.278,187.584 134,188.5C 132.991,186.975 132.491,185.308 132.5,183.5C 132.5,182.5 132.5,181.5 132.5,180.5C 133.741,182.931 134.908,182.931 136,180.5C 142.244,157.017 146.744,133.35 149.5,109.5 Z"/></g>
<g><path style="opacity:1" fill="#505050" d="M 413.5,156.5 C 416.152,156.41 418.485,157.076 420.5,158.5C 417.848,158.59 415.515,157.924 413.5,156.5 Z"/></g>
<g><path style="opacity:1" fill="#1f1f1f" d="M 422.5,145.5 C 422.833,145.5 423.167,145.5 423.5,145.5C 423.5,149.5 423.5,153.5 423.5,157.5C 425.216,157.629 426.883,157.962 428.5,158.5C 433.807,160.819 439.141,163.152 444.5,165.5C 445.84,164.133 447.173,162.8 448.5,161.5C 449.925,159.969 450.591,160.302 450.5,162.5C 449.058,163.82 448.392,165.486 448.5,167.5C 455.48,170.292 462.147,173.792 468.5,178C 472.659,181.247 476.992,184.247 481.5,187C 482.711,187.893 482.711,188.726 481.5,189.5C 470.284,182.058 458.618,175.392 446.5,169.5C 440.736,175.765 434.736,181.932 428.5,188C 423.672,191.581 418.672,194.915 413.5,198C 412.019,200.762 410.353,203.429 408.5,206C 404.812,206.45 401.146,206.283 397.5,205.5C 396.115,204.053 396.448,203.053 398.5,202.5C 402.631,201.184 406.464,199.184 410,196.5C 412.748,189.344 415.748,182.344 419,175.5C 420.131,169.888 420.631,164.221 420.5,158.5C 418.485,157.076 416.152,156.41 413.5,156.5C 413.167,156.5 412.833,156.5 412.5,156.5C 412.082,155.778 411.416,155.278 410.5,155C 411.793,154.51 413.127,154.343 414.5,154.5C 415.167,154.5 415.833,154.5 416.5,154.5C 417.919,155.451 419.585,155.784 421.5,155.5C 421.795,153.265 421.461,151.265 420.5,149.5C 420.5,148.167 420.5,146.833 420.5,145.5C 420.369,144.761 420.536,144.094 421,143.5C 421.278,144.416 421.778,145.082 422.5,145.5 Z M 425.5,162.5 C 430.726,163.78 435.393,166.113 439.5,169.5C 433.15,176.683 426.317,183.35 419,189.5C 421.854,180.749 424.021,171.749 425.5,162.5 Z"/></g>
<g><path style="opacity:0.224" fill="#dedede" d="M 228.5,161.5 C 228.167,161.5 227.833,161.5 227.5,161.5C 227.817,158.466 226.817,157.466 224.5,158.5C 224.167,158.5 223.833,158.5 223.5,158.5C 224.204,156.656 225.537,156.156 227.5,157C 228.38,158.356 228.714,159.856 228.5,161.5 Z"/></g>
<g><path style="opacity:0.365" fill="#c7c7c7" d="M 336.5,150.5 C 335.913,157.109 334.579,163.442 332.5,169.5C 333.087,162.891 334.421,156.558 336.5,150.5 Z"/></g>
<g><path style="opacity:0.116" fill="#d6d6d6" d="M 354.5,154.5 C 356.293,156.426 357.293,158.759 357.5,161.5C 356.833,160.833 356.167,160.167 355.5,159.5C 354.699,157.958 354.366,156.292 354.5,154.5 Z"/></g>
<g><path style="opacity:0.104" fill="#e3e3e3" d="M 468.5,92.5 C 468.5,96.5 468.5,100.5 468.5,104.5C 468.007,106.806 467.674,109.139 467.5,111.5C 465.648,120.559 463.482,129.559 461,138.5C 456.84,146.152 452.673,153.819 448.5,161.5C 447.173,162.8 445.84,164.133 444.5,165.5C 439.141,163.152 433.807,160.819 428.5,158.5C 427.713,156.896 426.38,156.229 424.5,156.5C 424.5,155.167 424.5,153.833 424.5,152.5C 425.267,153.172 425.934,154.005 426.5,155C 431.916,157.139 437.249,159.472 442.5,162C 443.784,162.684 444.951,162.517 446,161.5C 459.444,140.337 466.944,117.337 468.5,92.5 Z"/></g>
<g><path style="opacity:1" fill="#555555" d="M 144.5,156.5 C 144.367,159.925 145.033,160.258 146.5,157.5C 146.741,159.898 146.074,161.898 144.5,163.5C 144.869,161.007 144.203,160.34 142.5,161.5C 142.12,159.302 142.787,157.635 144.5,156.5 Z"/></g>
<g><path style="opacity:0.025" fill="#cbcbcb" d="M 354.5,160.5 C 356.109,166.83 358.775,172.663 362.5,178C 360.323,187.43 361.657,196.263 366.5,204.5C 363.444,202.737 361.611,200.07 361,196.5C 360.667,189.833 360.333,183.167 360,176.5C 357.064,171.627 354.397,166.627 352,161.5C 351.751,167.064 350.918,172.398 349.5,177.5C 349.788,170.135 350.455,162.802 351.5,155.5C 352.325,157.36 353.325,159.026 354.5,160.5 Z"/></g>
<g><path style="opacity:1" fill="#b9b9b9" d="M 354.5,154.5 C 353.211,152.752 351.711,152.419 350,153.5C 348.86,160.963 347.694,168.296 346.5,175.5C 346.5,174.167 346.5,172.833 346.5,171.5C 346.281,165.023 347.114,158.689 349,152.5C 351.811,150.82 353.644,151.487 354.5,154.5 Z"/></g>
<g><path style="opacity:0.769" fill="#d2d2d2" d="M 132.5,192.5 C 132.784,194.415 132.451,196.081 131.5,197.5C 131.59,194.848 130.924,192.515 129.5,190.5C 127.421,181.429 124.254,172.762 120,164.5C 114.174,173.152 109.674,182.486 106.5,192.5C 106.167,192.5 105.833,192.5 105.5,192.5C 108.194,183.724 111.194,175.057 114.5,166.5C 116.186,164.984 118.019,163.65 120,162.5C 121.261,162.759 122.261,163.426 123,164.5C 126.235,173.898 129.402,183.231 132.5,192.5 Z"/></g>
<g><path style="opacity:1" fill="#1f1f1f" d="M 354.5,154.5 C 354.366,156.292 354.699,157.958 355.5,159.5C 355.5,160.167 355.167,160.5 354.5,160.5C 353.325,159.026 352.325,157.36 351.5,155.5C 350.455,162.802 349.788,170.135 349.5,177.5C 346.332,187.011 343.332,196.677 340.5,206.5C 338.167,206.5 335.833,206.5 333.5,206.5C 333.027,205.094 332.027,204.427 330.5,204.5C 329.833,203.5 329.167,202.5 328.5,201.5C 328.5,200.833 328.833,200.5 329.5,200.5C 331.595,201.412 333.595,202.579 335.5,204C 336.5,204.667 337.5,204.667 338.5,204C 340.702,199.36 342.369,194.526 343.5,189.5C 344.868,184.929 345.868,180.262 346.5,175.5C 347.694,168.296 348.86,160.963 350,153.5C 351.711,152.419 353.211,152.752 354.5,154.5 Z"/></g>
<g><path style="opacity:0.424" fill="#d5d5d5" d="M 378.5,156.5 C 375.836,159.266 373.003,161.933 370,164.5C 368,167.833 366,171.167 364,174.5C 360.762,170.691 358.596,166.358 357.5,161.5C 359.394,164.939 361.56,168.272 364,171.5C 367.015,164.653 371.848,159.653 378.5,156.5 Z"/></g>
<g><path style="opacity:0.408" fill="#adadad" d="M 205.5,142.5 C 205.5,148.833 205.5,155.167 205.5,161.5C 205.953,170.802 204.953,179.802 202.5,188.5C 201.833,189.5 201.167,190.5 200.5,191.5C 201.017,187.778 201.85,184.112 203,180.5C 203.896,167.681 204.73,155.014 205.5,142.5 Z"/></g>
<g><path style="opacity:0.116" fill="#d4d4d4" d="M 423.5,159.5 C 429.689,162.295 436.022,164.628 442.5,166.5C 436.243,177.423 427.577,186.09 416.5,192.5C 416.167,192.167 415.833,191.833 415.5,191.5C 420.407,181.436 423.073,170.77 423.5,159.5 Z M 425.5,162.5 C 424.021,171.749 421.854,180.749 419,189.5C 426.317,183.35 433.15,176.683 439.5,169.5C 435.393,166.113 430.726,163.78 425.5,162.5 Z"/></g>
<g><path style="opacity:1" fill="#252525" d="M 114.5,166.5 C 111.194,175.057 108.194,183.724 105.5,192.5C 104.343,200.99 104.176,209.657 105,218.5C 106.614,225.818 110.447,227.318 116.5,223C 120.464,218.877 123.797,214.377 126.5,209.5C 127.338,209.842 127.672,210.508 127.5,211.5C 124.191,219.309 118.691,224.975 111,228.5C 107.44,227.278 104.773,224.945 103,221.5C 101.837,214.897 101.17,208.23 101,201.5C 99.4793,205.373 97.4793,209.04 95,212.5C 93.5557,214.155 91.7224,214.822 89.5,214.5C 89.5,212.833 89.5,211.167 89.5,209.5C 90.0507,206.733 91.3841,204.4 93.5,202.5C 93.8333,203 94.1667,203.5 94.5,204C 92.3388,206.477 91.5055,209.311 92,212.5C 98.7345,201.973 103.234,190.64 105.5,178.5C 107.838,174.463 110.172,170.463 112.5,166.5C 113.396,165.494 114.062,165.494 114.5,166.5 Z"/></g>
<g><path style="opacity:1" fill="#6c6c6c" d="M 142.5,163.5 C 142.59,166.152 141.924,168.485 140.5,170.5C 140.41,167.848 141.076,165.515 142.5,163.5 Z"/></g>
<g><path style="opacity:1" fill="#111111" d="M 227.5,161.5 C 227.667,173.171 227.5,184.838 227,196.5C 226.768,195.263 226.268,194.263 225.5,193.5C 225.029,191.421 224.363,189.421 223.5,187.5C 223.334,180.492 223.5,173.492 224,166.5C 224.151,173.896 224.818,181.229 226,188.5C 226.167,184.5 226.333,180.5 226.5,176.5C 226.687,169.629 226.02,163.629 224.5,158.5C 226.817,157.466 227.817,158.466 227.5,161.5 Z"/></g>
<g><path style="opacity:1" fill="#5c5c5c" d="M 223.5,158.5 C 223.833,158.5 224.167,158.5 224.5,158.5C 226.02,163.629 226.687,169.629 226.5,176.5C 226.333,180.5 226.167,184.5 226,188.5C 224.818,181.229 224.151,173.896 224,166.5C 223.5,173.492 223.334,180.492 223.5,187.5C 223.167,187.5 222.833,187.5 222.5,187.5C 222.245,177.794 222.579,168.127 223.5,158.5 Z"/></g>
<g><path style="opacity:0.079" fill="#dddddd" d="M 286.5,96.5 C 287.451,97.9187 287.784,99.5853 287.5,101.5C 286.023,125.786 284.857,150.12 284,174.5C 283.661,181.573 282.828,188.573 281.5,195.5C 280.3,194.008 279.467,191.675 279,188.5C 277.063,167.48 277.23,146.48 279.5,125.5C 280.461,123.735 280.795,121.735 280.5,119.5C 281.692,111.737 283.692,104.07 286.5,96.5 Z M 284.5,106.5 C 285.162,108.304 285.495,110.304 285.5,112.5C 284.796,124.823 284.296,137.157 284,149.5C 283.809,163.232 282.809,176.899 281,190.5C 278.22,162.321 279.386,134.321 284.5,106.5 Z"/></g>
<g><path style="opacity:1" fill="#626262" d="M 140.5,171.5 C 140.59,174.152 139.924,176.485 138.5,178.5C 138.41,175.848 139.076,173.515 140.5,171.5 Z"/></g>
<g><path style="opacity:0.396" fill="#eaeaea" d="M 346.5,171.5 C 346.5,172.833 346.5,174.167 346.5,175.5C 345.868,180.262 344.868,184.929 343.5,189.5C 343.167,189.5 342.833,189.5 342.5,189.5C 343.47,183.302 344.804,177.302 346.5,171.5 Z"/></g>
<g><path style="opacity:1" fill="#232323" d="M 405.5,152.5 C 406.167,152.5 406.833,152.5 407.5,152.5C 407.918,153.222 408.584,153.722 409.5,154C 402.654,154.172 395.987,154.672 389.5,155.5C 378.379,158.617 370.712,165.617 366.5,176.5C 368.622,179.124 370.955,181.624 373.5,184C 381.196,189.509 388.863,195.009 396.5,200.5C 397.167,201.167 397.833,201.833 398.5,202.5C 396.448,203.053 396.115,204.053 397.5,205.5C 394.203,207.601 390.537,208.935 386.5,209.5C 381.463,209.587 376.463,209.254 371.5,208.5C 370.415,206.413 368.749,205.08 366.5,204.5C 361.657,196.263 360.323,187.43 362.5,178C 358.775,172.663 356.109,166.83 354.5,160.5C 355.167,160.5 355.5,160.167 355.5,159.5C 356.167,160.167 356.833,160.833 357.5,161.5C 358.596,166.358 360.762,170.691 364,174.5C 366,171.167 368,167.833 370,164.5C 373.003,161.933 375.836,159.266 378.5,156.5C 387.076,152.85 396.076,151.516 405.5,152.5 Z M 366.5,184.5 C 375.486,189.673 383.82,195.839 391.5,203C 388.691,204.122 385.691,204.622 382.5,204.5C 370.587,205.254 364.92,199.587 365.5,187.5C 365.685,186.416 366.018,185.416 366.5,184.5 Z"/></g>
<g><path style="opacity:0.427" fill="#ababab" d="M 307.5,169.5 C 309.267,171.792 310.267,174.458 310.5,177.5C 308.733,175.208 307.733,172.542 307.5,169.5 Z"/></g>
<g><path style="opacity:0.957" fill="#cdcdcd" d="M 472.5,101.5 C 472.833,101.5 473.167,101.5 473.5,101.5C 471.674,125.147 464.008,146.647 450.5,166C 462.6,171.795 473.767,178.962 484,187.5C 484.483,188.448 484.649,189.448 484.5,190.5C 482.011,190.702 479.677,190.202 477.5,189C 467.888,182.275 457.721,176.442 447,171.5C 437.704,182.135 427.204,191.301 415.5,199C 413.623,201.921 411.623,204.754 409.5,207.5C 406.524,208.73 403.524,208.73 400.5,207.5C 392.914,210.67 385.247,211.67 377.5,210.5C 380.713,210.81 383.713,210.477 386.5,209.5C 390.537,208.935 394.203,207.601 397.5,205.5C 401.146,206.283 404.812,206.45 408.5,206C 410.353,203.429 412.019,200.762 413.5,198C 418.672,194.915 423.672,191.581 428.5,188C 434.736,181.932 440.736,175.765 446.5,169.5C 458.618,175.392 470.284,182.058 481.5,189.5C 482.711,188.726 482.711,187.893 481.5,187C 476.992,184.247 472.659,181.247 468.5,178C 462.147,173.792 455.48,170.292 448.5,167.5C 448.392,165.486 449.058,163.82 450.5,162.5C 461.449,147.345 468.116,130.345 470.5,111.5C 471.374,108.211 472.041,104.877 472.5,101.5 Z"/></g>
<g><path style="opacity:0.02" fill="#d2d2d2" d="M 480.5,174.5 C 481.568,173.566 482.901,173.232 484.5,173.5C 484.66,175.199 484.494,176.866 484,178.5C 479.825,179.803 478.659,178.469 480.5,174.5 Z"/></g>
<g><path style="opacity:1" fill="#555555" d="M 480.5,174.5 C 481.5,174.5 482.5,174.5 483.5,174.5C 483.5,175.5 483.5,176.5 483.5,177.5C 482.5,177.5 481.5,177.5 480.5,177.5C 480.5,176.5 480.5,175.5 480.5,174.5 Z"/></g>
<g><path style="opacity:1" fill="#090909" d="M 196.5,155.5 C 195.656,159.099 195.323,162.766 195.5,166.5C 194.833,176.5 194.167,186.5 193.5,196.5C 193.334,183.149 193.667,169.815 194.5,156.5C 194.5,156.167 194.5,155.833 194.5,155.5C 195.268,154.737 195.768,153.737 196,152.5C 196.483,153.448 196.649,154.448 196.5,155.5 Z"/></g>
<g><path style="opacity:0.073" fill="#e8e8e8" d="M 389.5,157.5 C 395.645,156.51 401.978,156.177 408.5,156.5C 409.833,156.5 411.167,156.5 412.5,156.5C 412.833,156.5 413.167,156.5 413.5,156.5C 415.515,157.924 417.848,158.59 420.5,158.5C 420.631,164.221 420.131,169.888 419,175.5C 415.748,182.344 412.748,189.344 410,196.5C 406.464,199.184 402.631,201.184 398.5,202.5C 397.833,201.833 397.167,201.167 396.5,200.5C 396.5,199.833 396.5,199.167 396.5,198.5C 401.46,199.95 405.626,198.617 409,194.5C 414.682,183.488 417.848,171.988 418.5,160C 408.977,157.76 399.31,156.927 389.5,157.5 Z"/></g>
<g><path style="opacity:0.11" fill="#c9c9c9" d="M 349.5,177.5 C 348.635,184.294 347.135,190.961 345,197.5C 344.337,201.035 342.837,204.035 340.5,206.5C 343.332,196.677 346.332,187.011 349.5,177.5 Z"/></g>
<g><path style="opacity:1" fill="#333333" d="M 118.5,152.5 C 118.409,154.698 119.075,155.031 120.5,153.5C 119.37,155.315 118.704,157.315 118.5,159.5C 119.978,159.238 121.311,159.571 122.5,160.5C 123.48,161.981 124.647,163.315 126,164.5C 128.085,170.924 130.252,177.258 132.5,183.5C 132.491,185.308 132.991,186.975 134,188.5C 134.278,187.584 134.778,186.918 135.5,186.5C 135.5,188.167 135.5,189.833 135.5,191.5C 134.209,191.263 133.209,191.596 132.5,192.5C 129.402,183.231 126.235,173.898 123,164.5C 122.261,163.426 121.261,162.759 120,162.5C 118.019,163.65 116.186,164.984 114.5,166.5C 114.062,165.494 113.396,165.494 112.5,166.5C 113.935,161.51 115.935,156.844 118.5,152.5 Z"/></g>
<g><path style="opacity:1" fill="#333333" d="M 194.5,156.5 C 193.667,169.815 193.334,183.149 193.5,196.5C 192.566,195.432 192.232,194.099 192.5,192.5C 192.334,182.828 192.5,173.161 193,163.5C 193.186,160.964 193.686,158.631 194.5,156.5 Z"/></g>
<g><path style="opacity:1" fill="#303030" d="M 205.5,137.5 C 205.5,139.167 205.5,140.833 205.5,142.5C 204.73,155.014 203.896,167.681 203,180.5C 201.85,184.112 201.017,187.778 200.5,191.5C 199.257,194.677 198.257,198.01 197.5,201.5C 196.555,203.704 196.389,206.038 197,208.5C 195.583,207.922 194.75,206.922 194.5,205.5C 194.037,202.518 193.704,199.518 193.5,196.5C 194.167,186.5 194.833,176.5 195.5,166.5C 195.334,176.506 195.5,186.506 196,196.5C 196.333,196.167 196.667,195.833 197,195.5C 201.545,177.126 203.711,158.46 203.5,139.5C 204.314,137.369 204.814,135.036 205,132.5C 205.494,134.134 205.66,135.801 205.5,137.5 Z"/></g>
<g><path style="opacity:0.027" fill="#c0c0c0" d="M 288.5,133.5 C 288.5,137.833 288.5,142.167 288.5,146.5C 288.666,155.173 288.5,163.84 288,172.5C 286.94,184.52 285.774,196.52 284.5,208.5C 283.06,207.054 282.393,205.221 282.5,203C 283.031,200.183 283.364,197.35 283.5,194.5C 284.856,191.423 285.689,188.09 286,184.5C 286.915,167.345 287.748,150.345 288.5,133.5 Z"/></g>
<g><path style="opacity:0.651" fill="#cacaca" d="M 331.5,173.5 C 329.668,180.82 328.168,188.154 327,195.5C 330.026,198.026 333.193,200.36 336.5,202.5C 337.799,201.91 338.632,200.91 339,199.5C 340.103,196.02 341.269,192.687 342.5,189.5C 342.833,189.5 343.167,189.5 343.5,189.5C 342.369,194.526 340.702,199.36 338.5,204C 337.5,204.667 336.5,204.667 335.5,204C 333.595,202.579 331.595,201.412 329.5,200.5C 327.436,198.438 325.769,196.105 324.5,193.5C 326.326,187.86 327.992,182.194 329.5,176.5C 330.167,175.5 330.833,174.5 331.5,173.5 Z"/></g>
<g><path style="opacity:1" fill="#dedede" d="M 389.5,155.5 C 396.022,155.177 402.355,155.51 408.5,156.5C 401.978,156.177 395.645,156.51 389.5,157.5C 380.062,160.601 373.062,166.601 368.5,175.5C 369.982,177.483 371.649,179.316 373.5,181C 381.351,186.697 389.018,192.53 396.5,198.5C 396.5,199.167 396.5,199.833 396.5,200.5C 388.863,195.009 381.196,189.509 373.5,184C 370.955,181.624 368.622,179.124 366.5,176.5C 370.712,165.617 378.379,158.617 389.5,155.5 Z"/></g>
<g><path style="opacity:0.235" fill="#dedede" d="M 252.5,193.5 C 251.167,192.167 249.833,192.167 248.5,193.5C 248.62,192.414 249.287,191.747 250.5,191.5C 251.713,191.747 252.38,192.414 252.5,193.5 Z"/></g>
<g><path style="opacity:0.737" fill="#c4c4c4" d="M 174.5,194.5 C 172.833,193.167 171.167,193.167 169.5,194.5C 169.418,192.748 170.251,191.748 172,191.5C 173.749,191.748 174.582,192.748 174.5,194.5 Z"/></g>
<g><path style="opacity:0.631" fill="#a6a6a6" d="M 248.5,193.5 C 248.116,198.01 247.449,202.343 246.5,206.5C 246.5,205.167 246.5,203.833 246.5,202.5C 246.068,199.123 246.735,196.123 248.5,193.5 Z"/></g>
<g><path style="opacity:1" fill="#292929" d="M 144.5,163.5 C 142.382,174.091 139.382,184.424 135.5,194.5C 136.87,203.98 138.87,213.313 141.5,222.5C 140.075,220.969 139.409,221.302 139.5,223.5C 138.833,222.167 138.167,220.833 137.5,219.5C 136.538,213.884 135.205,208.384 133.5,203C 132.668,202.312 132.002,202.479 131.5,203.5C 130.457,206.455 129.123,209.122 127.5,211.5C 127.672,210.508 127.338,209.842 126.5,209.5C 128.469,205.619 130.136,201.619 131.5,197.5C 132.451,196.081 132.784,194.415 132.5,192.5C 133.209,191.596 134.209,191.263 135.5,191.5C 135.5,189.833 135.5,188.167 135.5,186.5C 136.512,183.748 137.512,181.081 138.5,178.5C 139.924,176.485 140.59,174.152 140.5,171.5C 140.5,171.167 140.5,170.833 140.5,170.5C 141.924,168.485 142.59,166.152 142.5,163.5C 142.5,162.833 142.5,162.167 142.5,161.5C 144.203,160.34 144.869,161.007 144.5,163.5 Z"/></g>
<g><path style="opacity:0.094" fill="#dadada" d="M 222.5,187.5 C 222.833,187.5 223.167,187.5 223.5,187.5C 224.363,189.421 225.029,191.421 225.5,193.5C 225.306,199.12 224.306,204.453 222.5,209.5C 223.614,202.154 223.614,194.821 222.5,187.5 Z"/></g>
<g><path style="opacity:0.038" fill="#d5d5d5" d="M 169.5,194.5 C 168.832,200.513 167.998,206.513 167,212.5C 165.812,211.437 165.312,210.103 165.5,208.5C 164.949,205.193 164.616,201.86 164.5,198.5C 165.181,200.158 166.015,201.825 167,203.5C 167.204,200.203 168.037,197.203 169.5,194.5 Z"/></g>
<g><path style="opacity:0.8" fill="#d7d7d7" d="M 228.5,161.5 C 229.292,173.347 230.125,185.347 231,197.5C 234.427,201.601 238.427,204.934 243,207.5C 243.772,207.355 244.439,207.022 245,206.5C 245.21,204.942 245.71,203.609 246.5,202.5C 246.5,203.833 246.5,205.167 246.5,206.5C 246.068,207.71 245.401,208.71 244.5,209.5C 243.127,209.657 241.793,209.49 240.5,209C 236.818,205.597 233.318,202.097 230,198.5C 228.561,186.242 228.061,173.909 228.5,161.5 Z"/></g>
<g><path style="opacity:1" fill="#9b9b9b" d="M 406.5,201.5 C 408.048,201.821 408.715,202.821 408.5,204.5C 406.473,204.662 404.473,204.495 402.5,204C 404.066,203.392 405.4,202.558 406.5,201.5 Z"/></g>
<g><path style="opacity:1" fill="#4a4a4a" d="M 163.5,198.5 C 163.833,198.5 164.167,198.5 164.5,198.5C 164.616,201.86 164.949,205.193 165.5,208.5C 164.732,207.737 164.232,206.737 164,205.5C 163.517,206.448 163.351,207.448 163.5,208.5C 162.076,206.485 161.41,204.152 161.5,201.5C 162.268,202.263 162.768,203.263 163,204.5C 163.495,202.527 163.662,200.527 163.5,198.5 Z"/></g>
<g><path style="opacity:1" fill="#9a9a9a" d="M 366.5,204.5 C 368.749,205.08 370.415,206.413 371.5,208.5C 369.251,207.92 367.585,206.587 366.5,204.5 Z"/></g>
<g><path style="opacity:0.131" fill="#e7e7e7" d="M 364.5,180.5 C 375.078,187.732 385.412,195.399 395.5,203.5C 373.006,212.346 362.672,204.679 364.5,180.5 Z M 366.5,184.5 C 366.018,185.416 365.685,186.416 365.5,187.5C 364.92,199.587 370.587,205.254 382.5,204.5C 385.691,204.622 388.691,204.122 391.5,203C 383.82,195.839 375.486,189.673 366.5,184.5 Z"/></g>
<g><path style="opacity:0.278" fill="#c5c5c5" d="M 161.5,201.5 C 161.41,204.152 162.076,206.485 163.5,208.5C 163.298,210.989 163.798,213.323 165,215.5C 166.183,216.731 167.349,216.731 168.5,215.5C 169.256,210.46 170.256,205.46 171.5,200.5C 172.835,209.533 175.335,218.2 179,226.5C 181.07,229.408 183.57,230.074 186.5,228.5C 187.458,228.047 188.292,227.381 189,226.5C 191.345,220.788 193.678,215.122 196,209.5C 198.782,216.9 202.949,223.4 208.5,229C 212.221,229.678 215.888,229.511 219.5,228.5C 212.675,232.124 206.841,230.791 202,224.5C 199.746,220.993 197.746,217.327 196,213.5C 194.866,219.923 192.032,225.423 187.5,230C 185.167,230.667 182.833,230.667 180.5,230C 175.058,223.937 172.225,216.77 172,208.5C 171.321,211.55 170.488,214.55 169.5,217.5C 167.926,218.631 166.259,218.798 164.5,218C 162.122,213.125 160.622,207.958 160,202.5C 157.218,213.132 154.051,223.632 150.5,234C 146.726,235.183 143.559,234.349 141,231.5C 139.259,228.691 138.092,225.691 137.5,222.5C 137.5,221.5 137.5,220.5 137.5,219.5C 138.167,220.833 138.833,222.167 139.5,223.5C 139.979,227.292 141.646,230.459 144.5,233C 147.804,234.042 149.971,232.875 151,229.5C 153.545,217.651 156.545,205.985 160,194.5C 161.202,196.677 161.702,199.011 161.5,201.5 Z"/></g>
<g><path style="opacity:0.557" fill="#d2d2d2" d="M 330.5,204.5 C 332.027,204.427 333.027,205.094 333.5,206.5C 331.973,206.573 330.973,205.906 330.5,204.5 Z"/></g>
<g><path style="opacity:0.612" fill="#c8c8c8" d="M 260.5,214.5 C 259.257,212.036 258.257,209.37 257.5,206.5C 256.388,208.419 255.054,210.086 253.5,211.5C 254.295,208.577 255.628,205.91 257.5,203.5C 258.086,203.709 258.586,204.043 259,204.5C 259.61,207.827 260.11,211.161 260.5,214.5 Z"/></g>
<g><path style="opacity:0.259" fill="#d4d4d4" d="M 105.5,178.5 C 103.234,190.64 98.7345,201.973 92,212.5C 91.5055,209.311 92.3388,206.477 94.5,204C 94.1667,203.5 93.8333,203 93.5,202.5C 91.3841,204.4 90.0507,206.733 89.5,209.5C 89.1667,209.5 88.8333,209.5 88.5,209.5C 88.6518,204.164 91.3185,201.164 96.5,200.5C 99.5262,193.067 102.526,185.733 105.5,178.5 Z"/></g>
<g><path style="opacity:1" fill="#2c2c2c" d="M 252.5,193.5 C 253.833,195.833 253.833,198.167 252.5,200.5C 250.173,203.144 249.506,206.144 250.5,209.5C 252.369,206.948 254.369,204.448 256.5,202C 257.5,201.333 258.5,201.333 259.5,202C 261.585,208.162 263.752,214.329 266,220.5C 267.046,222.09 268.213,223.59 269.5,225C 271.112,225.72 272.612,225.554 274,224.5C 275.853,219.042 277.687,213.709 279.5,208.5C 279.328,209.492 279.662,210.158 280.5,210.5C 279.674,214.136 279.008,217.803 278.5,221.5C 276.896,222.287 276.229,223.62 276.5,225.5C 275.5,225.833 274.833,226.5 274.5,227.5C 272.5,228.833 270.5,228.833 268.5,227.5C 267.5,225.833 266.167,224.5 264.5,223.5C 263.662,223.158 263.328,222.492 263.5,221.5C 263.065,218.843 262.065,216.509 260.5,214.5C 260.11,211.161 259.61,207.827 259,204.5C 258.586,204.043 258.086,203.709 257.5,203.5C 255.628,205.91 254.295,208.577 253.5,211.5C 250.794,211.425 248.127,211.092 245.5,210.5C 244.833,210.5 244.5,210.167 244.5,209.5C 245.401,208.71 246.068,207.71 246.5,206.5C 247.449,202.343 248.116,198.01 248.5,193.5C 249.833,192.167 251.167,192.167 252.5,193.5 Z"/></g>
<g><path style="opacity:0.22" fill="#cacaca" d="M 333.5,206.5 C 335.833,206.5 338.167,206.5 340.5,206.5C 338.25,209.034 335.916,209.034 333.5,206.5 Z"/></g>
<g><path style="opacity:0.235" fill="#e2e2e2" d="M 129.5,190.5 C 130.924,192.515 131.59,194.848 131.5,197.5C 130.136,201.619 128.469,205.619 126.5,209.5C 123.797,214.377 120.464,218.877 116.5,223C 110.447,227.318 106.614,225.818 105,218.5C 104.176,209.657 104.343,200.99 105.5,192.5C 105.833,192.5 106.167,192.5 106.5,192.5C 106.334,201.506 106.5,210.506 107,219.5C 108.471,223.546 110.971,224.379 114.5,222C 123.418,213.332 128.418,202.832 129.5,190.5 Z"/></g>
<g><path style="opacity:0.522" fill="#cdcdcd" d="M 245.5,210.5 C 248.127,211.092 250.794,211.425 253.5,211.5C 253.038,212.88 252.038,213.547 250.5,213.5C 246.529,212.803 242.529,212.303 238.5,212C 235.035,209.537 231.869,206.704 229,203.5C 227.343,209.763 225.676,216.096 224,222.5C 223.186,225.177 221.686,227.177 219.5,228.5C 223.257,219.48 226.09,210.147 228,200.5C 232.159,203.659 235.992,207.159 239.5,211C 241.712,211.789 243.712,211.622 245.5,210.5 Z"/></g>
<g><path style="opacity:1" fill="#898989" d="M 371.5,208.5 C 376.463,209.254 381.463,209.587 386.5,209.5C 383.713,210.477 380.713,210.81 377.5,210.5C 375.102,210.741 373.102,210.074 371.5,208.5 Z"/></g>
<g><path style="opacity:0.949" fill="#dbdbdb" d="M 191.5,192.5 C 191.833,192.5 192.167,192.5 192.5,192.5C 192.232,194.099 192.566,195.432 193.5,196.5C 193.704,199.518 194.037,202.518 194.5,205.5C 192.403,210.96 190.57,216.627 189,222.5C 188.125,225.215 186.292,226.548 183.5,226.5C 182.206,225.71 181.039,224.71 180,223.5C 176.121,214.316 174.288,204.65 174.5,194.5C 176.406,201.272 177.906,208.272 179,215.5C 179.803,218.244 180.803,220.911 182,223.5C 183.938,224.86 185.604,224.527 187,222.5C 189.066,217.637 190.732,212.637 192,207.5C 192.251,202.499 192.084,197.499 191.5,192.5 Z"/></g>
<g><path style="opacity:1" fill="#d8d8d8" d="M 164.5,198.5 C 164.167,198.5 163.833,198.5 163.5,198.5C 163.135,195.375 162.302,192.375 161,189.5C 160.107,188.289 159.274,188.289 158.5,189.5C 155.108,202.847 151.608,216.18 148,229.5C 145.909,230.5 144.243,229.833 143,227.5C 142.392,225.846 141.892,224.179 141.5,222.5C 138.87,213.313 136.87,203.98 135.5,194.5C 136.167,194.5 136.833,194.5 137.5,194.5C 138.4,206.101 141.233,217.434 146,228.5C 150.3,214.967 154.133,201.301 157.5,187.5C 159.006,186.253 160.506,186.253 162,187.5C 163.562,191.014 164.395,194.681 164.5,198.5 Z"/></g>
<g><path style="opacity:0.412" fill="#c4c4c4" d="M 328.5,201.5 C 329.167,202.5 329.833,203.5 330.5,204.5C 328.236,203.419 326.069,202.085 324,200.5C 322.822,205.543 321.489,210.543 320,215.5C 319.14,218.633 317.64,221.3 315.5,223.5C 318.398,214.823 321.232,206.156 324,197.5C 325.371,199.041 326.871,200.375 328.5,201.5 Z"/></g>
<g><path style="opacity:0.2" fill="#c8c8c8" d="M 127.5,211.5 C 129.123,209.122 130.457,206.455 131.5,203.5C 132.002,202.479 132.668,202.312 133.5,203C 135.205,208.384 136.538,213.884 137.5,219.5C 137.5,220.5 137.5,221.5 137.5,222.5C 135.402,217.458 133.902,212.124 133,206.5C 128.649,214.521 123.149,221.688 116.5,228C 110.956,230.781 106.456,229.614 103,224.5C 101.181,219.676 100.015,214.676 99.5,209.5C 97.9596,211.387 96.2929,213.22 94.5,215C 88.5059,216.836 86.5059,215.003 88.5,209.5C 88.8333,209.5 89.1667,209.5 89.5,209.5C 89.5,211.167 89.5,212.833 89.5,214.5C 91.7224,214.822 93.5557,214.155 95,212.5C 97.4793,209.04 99.4793,205.373 101,201.5C 101.17,208.23 101.837,214.897 103,221.5C 104.773,224.945 107.44,227.278 111,228.5C 118.691,224.975 124.191,219.309 127.5,211.5 Z"/></g>
<g><path style="opacity:0.337" fill="#d1d1d1" d="M 310.5,177.5 C 313.769,183.867 317.436,190.034 321.5,196C 319.293,206.465 315.626,216.298 310.5,225.5C 296.65,228.011 287.983,222.344 284.5,208.5C 287.563,214.067 291.563,218.901 296.5,223C 302.289,226.432 307.456,225.599 312,220.5C 315.347,212.947 317.847,205.113 319.5,197C 315.838,190.841 312.838,184.341 310.5,177.5 Z"/></g>
<g><path style="opacity:0.157" fill="#d2d2d2" d="M 292.5,226.5 C 291.761,226.631 291.094,226.464 290.5,226C 287.135,222.739 284.135,219.239 281.5,215.5C 280.482,217.594 279.482,219.594 278.5,221.5C 279.008,217.803 279.674,214.136 280.5,210.5C 283.664,215.775 287.664,221.108 292.5,226.5 Z"/></g>
<g><path style="opacity:0.157" fill="#c5c5c5" d="M 260.5,214.5 C 262.065,216.509 263.065,218.843 263.5,221.5C 261.552,219.68 260.552,217.346 260.5,214.5 Z"/></g>
<g><path style="opacity:0.063" fill="#d3d3d3" d="M 274.5,144.5 C 274.333,156.171 274.5,167.838 275,179.5C 276.342,189.198 277.842,198.865 279.5,208.5C 277.687,213.709 275.853,219.042 274,224.5C 272.612,225.554 271.112,225.72 269.5,225C 268.213,223.59 267.046,222.09 266,220.5C 263.752,214.329 261.585,208.162 259.5,202C 258.5,201.333 257.5,201.333 256.5,202C 254.369,204.448 252.369,206.948 250.5,209.5C 249.506,206.144 250.173,203.144 252.5,200.5C 252.351,201.552 252.517,202.552 253,203.5C 254.554,200.898 256.72,199.731 259.5,200C 262.553,206.676 265.387,213.509 268,220.5C 270.232,224.325 272.232,224.325 274,220.5C 275.802,215.822 276.969,210.988 277.5,206C 273.582,185.489 272.582,164.989 274.5,144.5 Z"/></g>
<g><path style="opacity:1" fill="#2b2b2b" d="M 227.5,161.5 C 227.833,161.5 228.167,161.5 228.5,161.5C 228.061,173.909 228.561,186.242 230,198.5C 233.318,202.097 236.818,205.597 240.5,209C 241.793,209.49 243.127,209.657 244.5,209.5C 244.5,210.167 244.833,210.5 245.5,210.5C 243.712,211.622 241.712,211.789 239.5,211C 235.992,207.159 232.159,203.659 228,200.5C 226.09,210.147 223.257,219.48 219.5,228.5C 215.888,229.511 212.221,229.678 208.5,229C 202.949,223.4 198.782,216.9 196,209.5C 193.678,215.122 191.345,220.788 189,226.5C 188.292,227.381 187.458,228.047 186.5,228.5C 185.5,227.833 184.5,227.167 183.5,226.5C 186.292,226.548 188.125,225.215 189,222.5C 190.57,216.627 192.403,210.96 194.5,205.5C 194.75,206.922 195.583,207.922 197,208.5C 196.389,206.038 196.555,203.704 197.5,201.5C 199.188,211.044 203.188,219.544 209.5,227C 213.274,228.183 216.441,227.349 219,224.5C 221.51,219.805 222.677,214.805 222.5,209.5C 224.306,204.453 225.306,199.12 225.5,193.5C 226.268,194.263 226.768,195.263 227,196.5C 227.5,184.838 227.667,173.171 227.5,161.5 Z"/></g>
<g><path style="opacity:1" fill="#252525" d="M 174.5,194.5 C 174.288,204.65 176.121,214.316 180,223.5C 181.039,224.71 182.206,225.71 183.5,226.5C 184.5,227.167 185.5,227.833 186.5,228.5C 183.57,230.074 181.07,229.408 179,226.5C 175.335,218.2 172.835,209.533 171.5,200.5C 170.256,205.46 169.256,210.46 168.5,215.5C 167.349,216.731 166.183,216.731 165,215.5C 163.798,213.323 163.298,210.989 163.5,208.5C 163.351,207.448 163.517,206.448 164,205.5C 164.232,206.737 164.732,207.737 165.5,208.5C 165.312,210.103 165.812,211.437 167,212.5C 167.998,206.513 168.832,200.513 169.5,194.5C 171.167,193.167 172.833,193.167 174.5,194.5 Z"/></g>
<g><path style="opacity:0.129" fill="#e0e0e0" d="M 202.5,188.5 C 201.376,193.453 200.376,198.453 199.5,203.5C 200.626,210.083 203.126,216.083 207,221.5C 209.482,225.323 212.649,226.49 216.5,225C 219.502,220.106 221.502,214.94 222.5,209.5C 222.677,214.805 221.51,219.805 219,224.5C 216.441,227.349 213.274,228.183 209.5,227C 203.188,219.544 199.188,211.044 197.5,201.5C 198.257,198.01 199.257,194.677 200.5,191.5C 201.167,190.5 201.833,189.5 202.5,188.5 Z"/></g>
<g><path style="opacity:0.776" fill="#b5b5b5" d="M 278.5,221.5 C 278.771,223.38 278.104,224.713 276.5,225.5C 276.229,223.62 276.896,222.287 278.5,221.5 Z"/></g>
<g><path style="opacity:0.004" fill="#d8d8d8" d="M 264.5,223.5 C 266.167,224.5 267.5,225.833 268.5,227.5C 266.167,227.167 264.833,225.833 264.5,223.5 Z"/></g>
<g><path style="opacity:0.016" fill="#cdcdcd" d="M 315.5,223.5 C 314.833,226.167 313.167,227.833 310.5,228.5C 310.833,227.833 311.167,227.167 311.5,226.5C 312.833,225.5 314.167,224.5 315.5,223.5 Z"/></g>
<g><path style="opacity:0.004" fill="#cfcfcf" d="M 276.5,225.5 C 276.5,226.833 275.833,227.5 274.5,227.5C 274.833,226.5 275.5,225.833 276.5,225.5 Z"/></g>
<g><path style="opacity:1" fill="#888888" d="M 292.5,226.5 C 294.898,226.259 296.898,226.926 298.5,228.5C 297.833,228.5 297.167,228.5 296.5,228.5C 294.847,228.34 293.514,227.674 292.5,226.5 Z"/></g>
<g><path style="opacity:0.341" fill="#dcdcdc" d="M 296.5,228.5 C 297.167,228.5 297.833,228.5 298.5,228.5C 301.764,229.324 305.098,229.658 308.5,229.5C 307.207,230.158 305.707,230.492 304,230.5C 301.179,230.592 298.679,229.926 296.5,228.5 Z"/></g>
<g><path style="opacity:1" fill="#2c2c2c" d="M 163.5,198.5 C 163.662,200.527 163.495,202.527 163,204.5C 162.768,203.263 162.268,202.263 161.5,201.5C 161.702,199.011 161.202,196.677 160,194.5C 156.545,205.985 153.545,217.651 151,229.5C 149.971,232.875 147.804,234.042 144.5,233C 141.646,230.459 139.979,227.292 139.5,223.5C 139.409,221.302 140.075,220.969 141.5,222.5C 141.892,224.179 142.392,225.846 143,227.5C 144.243,229.833 145.909,230.5 148,229.5C 151.608,216.18 155.108,202.847 158.5,189.5C 159.274,188.289 160.107,188.289 161,189.5C 162.302,192.375 163.135,195.375 163.5,198.5 Z"/></g>
</svg>
